<svg xmlns="http://www.w3.org/2000/svg" width="512" height="512"><path fill="#F5BE2C" d="M27.17 157.97A27.2 27.2 0 000 185.17v87.74c0 14.99 12.19 27.18 27.17 27.18h37.89v20.62c0 6.91 3.57 13 8.96 16.52-8.52 17.3-14.27 39.38-8.3 75.65a85.02 85.02 0 00-3.07 20.31 9.62 9.62 0 002.65 7.3c2.54 2.59 5.64 2.82 7.79 2.82.26 0 1.4-.01 1.4-.01h5.72c5.01 31.19 31.55 54.7 63.24 54.7s58.23-23.51 63.24-54.7h156.86c.28 2.52.68 5.01 1.2 7.47a8.62 8.62 0 004.23 5.75c2.37 1.28 4.75.99 7.25.4l8.4-1.93a57.02 57.02 0 0023.32 28.62 56.98 56.98 0 0043.32 7.3c28.38-6.53 46.98-33.19 44.26-61.44l10.65-2.45a7.5 7.5 0 005.63-8.98 75.44 75.44 0 00-74.56-58.48l-11.35-39.24a7.5 7.5 0 00-14.41 4.17l11.87 41.02-56.15 62.8h-13.48c23.26-54.64 38.39-108.62 11.87-189.5h21.32l14.9 51.5a7.5 7.5 0 1014.41-4.17l-13.7-47.32h8.94a7.5 7.5 0 007.5-7.5v-39.04c0-1.94 0-7.83-4.67-11.19-4.73-3.41-10.18-1.6-15 0l-52.5 17.35-45.51-3.68-18.7-16.09c0-12.42-1.24-23.35-3.74-32.62a52.08 52.08 0 0041.12-59.66h5.1a7.5 7.5 0 007.5-7.5c0-35.78-28.55-64.89-63.63-64.89S205.3 43.1 205.3 78.89c0 19.89 6.82 37.13 18.6 49.25-10.04 7.01-21.74 18.74-31.77 38.31-12.92 25.2-19.82 57.28-20.53 95.34-.44 9 .23 16.74 2.04 23.3h-32.48v-99.93c0-14.99-12.19-27.19-27.17-27.19H27.17zm372.24 293.64l81.35-18.72a42.5 42.5 0 01-32.85 43.4 42.07 42.07 0 01-32-5.38 42.15 42.15 0 01-16.5-19.3zm-21.22-13.08l57.15-63.9c26.48-1.4 50.71 14.91 59.71 39.57L378.4 441.03c-.08-.83-.15-1.67-.2-2.51zM265.1 310.35c-2.9-7.67-9.24-11.55-18.84-11.55l-26.92-.03c-12.54-.01-21.05-2.56-26.02-7.8-4.27-4.5-6.52-11.58-6.81-21.54h73.52c10.76 1.29 34.71 9.11 34.71 53.01v38.83h-27.46v-28.3c0-9.8 0-16.88-2.18-22.62zm37.14 65.92c3.18 0 9.13.66 13.35 5.08 2.85 2.97 4.58 7.27 5.17 12.82H267.5c-.07 0-.14 0-.2 0v-17.9h34.95zm-65.83-238.31a62.13 62.13 0 0017.5 6.93c3.13.92 6.3 1.55 9.5 1.88a88.55 88.55 0 013.62 19c-7.9-5.05-16.86-6.1-25.17-2.76-9.1 3.64-15.6 12.16-16.52 21.7-1.05 10.76 4.84 21.15 16.16 28.5l20.73 13.46c-2 9.7-4.45 19.14-7.19 27.76h-68.2c3.36-79.85 35.13-107.84 49.57-116.47zm27.68-66.57c-.23 0-.45.01-.68.03-12.45 1.14-15.07 9.52-15.07 16.35v39.46c-17.3-7.93-28.03-25.96-28.03-48.34 0-27.5 21.82-49.89 48.63-49.89 24.33 0 44.54 18.43 48.08 42.4h-52.93zm4.68 60.65c-.01 0-.03 0-.05 0-1.8 0-3.6-.13-5.38-.4V87.78c0-.55.04-.95.07-1.23.25-.05.58-.1 1.05-.15h40.23a37.02 37.02 0 01-35.91 45.65zm46.64 78.91v12.87h-30.02l-35.73-23.2c-6.55-4.25-9.9-9.38-9.4-14.45.4-4.03 3.21-7.65 7.17-9.24a11.3 11.3 0 014.23-.82c3.22 0 6.53 1.37 9.63 4.04l32.07 27.58a7.5 7.5 0 004.28 1.79l17.77 1.43zm37.6 9.03c-.07 1.75-.69 3.84-3.2 3.84h-19.4v-11.65l16.7 1.35c5.85.48 5.94 5.46 5.9 6.46zm11.82-11.7l39.13-12.94v28.48h-36.33c0-.02-.01-.04-.01-.06a21.93 21.93 0 00-2.76-15.42c-.01-.02-.02-.04-.03-.06zm-13.88 185.9H335.8c-.75-9.67-3.88-17.45-9.37-23.2a31.31 31.31 0 00-16.7-8.96v-39.58c0-47.05-24.27-61.64-39.57-66.16a293.7 293.7 0 005.52-20.87l3.4 2.2a7.5 7.5 0 004.08 1.2h66.6c22.22 64.67 16.42 111.43 1.18 155.36zM225.8 428.3a82.62 82.62 0 00-23.58-51.19 80.76 80.76 0 00-57.85-24.18 81.1 81.1 0 00-66.12 33.86c-.31-21.63 5.02-35.32 10.95-46.33h70.25a7.5 7.5 0 100-15H84.8a4.81 4.81 0 01-4.75-4.75V300.1h101.32c.35.4.7.8 1.07 1.2 7.95 8.37 20.02 12.45 36.88 12.47l26.93.03c4.12 0 4.45.86 4.83 1.86.78 2.06 1.05 5.54 1.15 9.8h-59.15a7.5 7.5 0 100 15h59.2v55.06c0 9.06 5.12 13.65 15.21 13.65h77.87a606.5 606.5 0 01-7.96 19.1l-111.59.03zm-130.37 15h96.01c-4.78 22.8-24.56 39.7-48 39.7-23.45 0-43.22-16.9-48-39.7zM78 428.3a69.14 69.14 0 012.56-12.69c8.38-27.81 33.69-47.68 63.82-47.68 34.33 0 62.68 26.46 66.37 60.37H78zM15 246.36h111.17v38.73h-99A12.2 12.2 0 0115 272.92v-26.55zm0-30.95h111.17v15.95H15v-15.95zm0-30.25a12.2 12.2 0 0112.17-12.19H114a12.2 12.2 0 0112.17 12.2v15.24H15v-15.25z"/></svg>