<svg xmlns="http://www.w3.org/2000/svg" width="512" height="512"><g fill="#F5BE2C"><circle cx="464" cy="104.024" r="8"/><circle cx="432" cy="104.024" r="8"/><path d="M472 64.02H40c-22.06 0-40 17.94-40 40v320c0 22.05 17.94 40 40 40h432c22.06 0 40-17.95 40-40v-320c0-22.05-17.94-40-40-40zm-432 16h432c13.23 0 24 10.76 24 24v24H16v-24c0-13.24 10.77-24 24-24zm432 368H40c-13.23 0-24-10.77-24-24v-280h480v280c0 13.24-10.77 24-24 24z"/><path d="M40 112.02h104a8 8 0 100-16H40a8 8 0 100 16zM344 280.02c-1.94 0-3.85.1-5.74.24-8.36-22.9-25.08-49.96-58.26-63.48v-32.76c0-8.83-7.18-16-16-16h-64c-8.82 0-16 7.17-16 16v32.76c-58.62 24-66.78 90.7-67.85 112.5a27.93 27.93 0 00-11.97 6.92A28.03 28.03 0 00124 384.02h155.7c12.14 24.4 36.7 40 64.3 40 39.7 0 72-32.3 72-72s-32.3-72-72-72zm-80-96v27.6a137.06 137.06 0 00-32-3.6 136.9 136.9 0 00-32 3.6v-27.6h64zm-69.34 45.79c10.9-3.84 23.47-5.8 37.34-5.8s26.44 1.96 37.4 5.81c24.73 8.53 42.44 26.61 52.87 53.6a72.14 72.14 0 00-45.98 44.6H132.21c1.3-21.21 9.69-79.96 62.45-98.21zM112 356a12.1 12.1 0 013.5-8.5 12.1 12.1 0 018.5-3.5h148.5a72.8 72.8 0 00-.5 8c0 5.4.67 10.74 1.87 16H124c-6.62 0-12-5.37-12-12zm232 52a55.85 55.85 0 01-56-56c0-4.66.6-9.38 1.74-13.98a56.23 56.23 0 0144.46-41.17 56.07 56.07 0 0165.8 55.17c0 30.87-25.13 55.99-56 55.99z"/><path d="M158.13 311.76a8 8 0 009.77-5.7c3.75-14.27 9.56-25.54 17.3-33.53a48.33 48.33 0 0117.71-11.69 7.99 7.99 0 10-5.81-14.9 64.02 64.02 0 00-23.4 15.48c-9.66 9.96-16.83 23.62-21.28 40.57a8 8 0 005.7 9.77zM68 224.02c15.44 0 28-12.56 28-28s-12.56-28-28-28-28 12.56-28 28 12.56 28 28 28zm0-40c6.62 0 12 5.38 12 12a12 12 0 11-12-12zM366.13 190.94a7.99 7.99 0 0010.94-2.9 8.06 8.06 0 016.93-4.02 8 8 0 010 16 8 8 0 100 16c13.23 0 24-10.76 24-24s-10.77-24-24-24c-8.5 0-16.46 4.59-20.76 11.98a8 8 0 002.89 10.94zM376 344.02h-24v-24a8 8 0 10-16 0v24h-24a8 8 0 100 16h24v24a8 8 0 1016 0v-24h24a8 8 0 100-16zM472 376.02a8 8 0 00-8 8v24.03c0 4.4-3.58 7.97-7.97 7.97H432a8 8 0 100 16h24.03A24 24 0 00480 408.05v-24.03a8 8 0 00-8-8zM80 416.02H55.97a7.97 7.97 0 01-7.97-7.96v-24.03a8 8 0 10-16 0v24.03a24 24 0 0023.97 23.97H80a8 8 0 100-16.01zM176 112.02h24a8 8 0 100-16h-24a8 8 0 100 16zM430.14 190.94a8 8 0 0010.93-2.92 8 8 0 106.94 28c13.22 0 24-10.76 24-24s-10.78-24-24-24a24.1 24.1 0 00-20.8 12 7.99 7.99 0 002.93 10.92z"/></g></svg>