<svg xmlns="http://www.w3.org/2000/svg" width="512" height="512"><path fill="#F5BE2C" d="M112.5 195.13c3.1-2.75 3.37-7.5.62-10.6-2.75-3.1-7.5-3.37-10.58-.62-3.1 2.76-3.38 7.5-.63 10.6 2.76 3.1 7.5 3.38 10.6.63zm-37.84 30.74c1.22-3.96-1-8.15-4.96-9.37-3.96-1.22-8.16 1-9.38 4.96-1.22 3.96 1 8.15 4.96 9.37 3.96 1.22 8.16-1 9.38-4.96zm282.1-20.1c-4.07.8-6.75 4.7-5.98 8.78.78 4.07 4.7 6.74 8.77 5.97 4.07-.77 6.74-4.7 5.97-8.76-.77-4.07-4.7-6.75-8.76-5.97v-.02zm-218.8-13.7c3.1-2.74 3.38-7.48.63-10.58-2.76-3.1-7.5-3.4-10.6-.63-3.1 2.75-3.38 7.5-.63 10.58 2.75 3.1 7.5 3.38 10.6.63zm15-32.88c3.1-2.76 3.38-7.5.63-10.6-2.76-3.1-7.5-3.37-10.6-.62-3.1 2.75-3.38 7.5-.63 10.6 2.75 3.08 7.5 3.36 10.6.6zm-33.23 3.57c3.1-2.75 3.38-7.5.63-10.6-2.75-3.08-7.5-3.36-10.6-.6-3.08 2.74-3.37 7.48-.62 10.57 2.75 3.1 7.5 3.38 10.6.63zm269.83 187.1c-2.93 2.93-2.93 7.68 0 10.6 2.93 2.94 7.68 2.94 10.6 0 2.94-2.92 2.94-7.67 0-10.6-2.92-2.93-7.67-2.93-10.6 0zm36.9-96.83c.97-4.03-1.5-8.1-5.52-9.07-4.02-.98-8.08 1.48-9.06 5.5-1 4.03 1.48 8.1 5.5 9.07 4.03.98 8.1-1.48 9.07-5.5zm-18.36 43.5c-4.02-.98-8.08 1.5-9.06 5.5-1 4.03 1.48 8.1 5.5 9.08 4.03.98 8.1-1.5 9.07-5.5 1-4.03-1.47-8.1-5.5-9.08zm25.22-21.52c-4.03-1-8.1 1.48-9.07 5.5-.98 4.03 1.48 8.08 5.5 9.07 4.03.97 8.1-1.5 9.07-5.52 1-4.02-1.48-8.08-5.5-9.06zm3.7-200.04C388.67 26.63 324.38 0 256 0S123.33 26.63 74.98 74.98C26.63 123.33 0 187.62 0 256s26.63 132.67 74.98 181.02C123.33 485.37 187.62 512 256 512s132.67-26.63 181.02-74.98C485.37 388.67 512 324.38 512 256s-26.63-132.67-74.98-181.02zm-10.6 351.43C380.88 471.94 320.36 497 256 497s-124.9-25.07-170.4-70.6C40.06 380.9 15 320.38 15 256S40.07 131.1 85.6 85.6C131.1 40.06 191.62 15 256 15s124.9 25.07 170.4 70.6C471.94 131.1 497 191.62 497 256s-25.07 124.9-70.6 170.4zm31.77-181.77c-4.13-6.8-9.4-12.6-15.55-17.25-6.65-43.65-28.52-83.7-61.86-113.08C346.3 83.9 302 67.18 256 67.18c-47 0-91.82 17.3-126.58 48.74-14.3.55-27.84 5.98-38.67 15.6-12.95 11.5-19.93 27.26-20.7 43.34-17.4 6.9-30.82 21.26-36.4 39.35-9.6 31.18 6.72 64.24 36.62 75.95 3.67 20.12 10.55 39.33 20.47 57.2-4.87 27.77 3.18 56.58 24.12 77.53 27.23 27.23 68.6 33 101.95 15.85 12.83 2.7 26 4.1 39.2 4.1 7.32 0 14.7-.43 21.9-1.27 4.12-.47 7.07-4.2 6.6-8.3-.48-4.12-4.2-7.08-8.32-6.6-6.64.77-13.44 1.16-20.18 1.16-7.16 0-14.3-.45-21.38-1.32 2.36-2.25 3.77-5.37 3.88-8.64.12-3.44-1.2-6.8-3.65-9.24L129.13 304.9c-2.44-2.45-5.82-3.75-9.25-3.66-3.46.1-6.75 1.67-9.02 4.27-5.7 6.52-10.26 13.67-13.7 21.2-4.66-10.47-8.27-21.35-10.78-32.57 2.23.24 4.46.36 6.68.36 19.6 0 38.3-9.34 50.07-25.65l10.77 2.84 15.66 48.12c1.52 4.65 5.66 7.86 10.55 8.18 4.85.3 9.4-2.35 11.5-6.78l21.27-44.94c9.9-1.53 19.45-4.17 28.52-7.83-3.3 12.92-4.6 26.4-3.76 39.76l-39.36 30.4c-3.87 3-5.5 7.97-4.15 12.67 1.34 4.7 5.36 8.06 10.25 8.56l50.36 5 23.1 45.04c2.04 4 6.1 6.47 10.54 6.46 5.28 0 9.98-3.48 11.43-8.56l13.9-47.74c1.18-.38 2.35-.8 3.52-1.22 3.1 8.17 7.9 15.6 14.13 21.86 7.78 7.78 17.14 13.04 27.05 15.8-15.1 11.06-31.72 19.52-49.65 25.22-3.95 1.26-6.13 5.48-4.88 9.42 1.27 4 5.56 6.1 9.42 4.88 24.57-7.82 46.9-20.4 66.43-37.37 14.34-1.03 28.38-7 39.3-17.94 13.4-13.37 19.83-31.92 17.8-50.52 14.42-8.55 24.6-22.3 28.6-38.6 3.93-16.1 1.36-32.75-7.24-46.9zM222.32 419.3c-10.05 8.18-21.78 13.22-33.9 15.18l-3.1-52.16 37 36.98zm-48.87 16.06c-15.14-.68-30.08-6.06-42.4-16.07l39.13-39.14 3.26 55.2zM120.44 317.4l36.98 37-52.16-3.1c1.96-12.1 7-23.83 15.18-33.9zm39.14 52.16l-39.13 39.13c-10-12.34-15.4-27.28-16.07-42.42l55.2 3.28zM256 82.18c42.35 0 83.15 15.4 114.88 43.37 27.78 24.48 46.9 57 54.82 92.75-8.24-2.88-17.12-4-25.7-3.27-2.17-11.63-5.96-23.05-11.42-33.92-2.27-4.5-6.8-7.6-11.85-8.06-20.25-1.83-40.9 1.3-59.7 8.9 5.87-22.8 5.46-47.2-1.9-70.46-1.52-4.82-5.52-8.6-10.42-9.85-45.26-11.54-93.4 3.06-125.05 36.7-7.9-9.55-18.32-16.4-29.95-19.86 30.34-23.5 67.52-36.3 106.3-36.3zm129.15 177.5c-15.47-.68-32.4-6.63-47.33-16.8-13.57-9.24-24.5-21.23-31.1-34.05 1.18-2.3 2.3-4.6 3.34-6.96 19.66-10.98 42.7-15.92 65.18-13.9 11.28 22.53 14.5 47.76 9.9 71.7zM100.7 142.74c20.54-18.23 52.84-14.93 69.16 7.4-13.48 18.4-21.67 39.88-23.88 62.93l-20.8 11.32c-10.96-1.6-21-6.97-28.4-15.3-17.2-19.4-15.45-49.16 3.93-66.36zM79.1 277.37C54.3 269.74 40.38 243.4 48 218.63c3.75-12.2 12.2-22.16 23.3-27.9 2.14 10.2 6.86 20 14.26 28.32 5.93 6.67 13.1 11.9 21.07 15.44-6.03 2.27-11.26 7.38-10.43 14.2.6 4.87 4.03 8.82 8.76 10.07l22.24 5.87c-12.06 12.92-30.6 18.13-48.12 12.73zm131.43-15.9c-4.87.73-9.04 3.84-11.14 8.3L181.4 307.7l-13.77-42.27c-1.25-3.86-4.34-6.78-8.26-7.8l-43-11.36 36.88-20.08c4.33-2.36 7.2-6.7 7.65-11.6 2.4-25.18 12.86-48.22 30.27-66.64 7.15-7.57 15.22-14 23.92-19.2 2.12 7 5.2 13.97 9.22 20.83 2.1 3.6 6.74 4.73 10.26 2.67 3.57-2.1 4.77-6.7 2.67-10.27-3.86-6.6-6.76-13.48-8.55-20.2 22.42-9.6 47.75-11.86 72.18-5.66 7.57 24.04 6.74 49.46-1.58 72.4-14.13-2.88-28.58-10.4-41.24-21.53-3.1-2.73-7.85-2.43-10.6.68-2.72 3.1-2.42 7.85.7 10.58 13.66 12.05 29.33 20.44 44.98 24.25-4.72 9-10.67 17.4-17.83 24.97-17.34 18.36-39.67 30.15-64.8 34zm98.52 84.3c-4.7 1.5-8.32 5.22-9.7 9.96l-11.72 40.3-20.3-39.57c-1.84-3.6-5.35-5.98-9.4-6.4l-44.24-4.4 33.24-25.65c3.9-3 6.04-7.74 5.7-12.66-1.04-16.47 1.6-33.14 7.6-48.4 9.45-5.8 18.2-12.88 26-21.17 4.3-4.52 8.16-9.32 11.67-14.33 7.77 12.03 18.63 23.06 31.5 31.84 16.44 11.2 34.52 17.83 51.9 19.2-3.23 9.6-7.8 18.86-13.65 27.47-14.27 20.94-34.53 36.1-58.6 43.82zm99.42 24.28c-18.33 18.32-48.15 18.32-66.48 0-4.86-4.87-8.55-10.7-10.88-17.07 13.7-6.73 25.97-15.8 36.4-26.95 15.32 11.77 36.1 15.8 54.7 10.44.12 12.47-4.74 24.57-13.74 33.58zm42.4-82.08c-2.96 12.2-10.5 22.5-21.24 29.02-16.2 9.84-37.44 8.75-52.5-2.5 9.98-13.5 17.15-28.85 21.15-44.67 3.08-12.17 4.43-27.55 3.63-39.9 17.43-1.3 34.34 7.42 43.5 22.5 6.5 10.72 8.46 23.34 5.47 35.54zM318.3 307.84L288.4 284.7c-3.28-2.53-8-1.93-10.52 1.35-2.54 3.27-1.94 7.98 1.34 10.52l29.86 23.13c3.25 2.52 7.97 1.96 10.52-1.34 2.54-3.27 1.94-7.98-1.33-10.52zM196.6 200.6c-2.94-2.94-7.7-2.94-10.62 0-2.93 2.9-2.93 7.66 0 10.6l26.7 26.7c2.93 2.94 7.67 2.95 10.6.02 2.94-2.93 2.94-7.68 0-10.6l-26.7-26.73zm83.63-54.8c4.14-.12 7.4-3.57 7.28-7.7s-3.56-7.42-7.7-7.3c-4.14.12-7.4 3.57-7.28 7.7.12 4.15 3.57 7.4 7.7 7.3zm76.6 209.38c-2.93 2.94-2.93 7.68 0 10.6 2.93 2.94 7.68 2.94 10.6 0 2.94-2.92 2.94-7.67 0-10.6-2.92-2.93-7.67-2.93-10.6 0zm-139.6-175.22c-2.92-2.93-7.67-2.93-10.6 0-2.93 2.93-2.93 7.68 0 10.6l26.7 26.73c2.92 2.92 7.67 2.92 10.6 0 2.93-2.93 2.93-7.68 0-10.6l-26.7-26.74zM80.3 247.9c-3.95-1.2-8.15 1-9.37 4.97-1.22 3.96 1 8.15 4.96 9.37 3.95 1.22 8.15-1 9.37-4.96 1.22-3.96-1-8.15-4.96-9.37zm255.85 36.87l-29.86-23.13c-3.3-2.54-8-1.94-10.54 1.34-2.53 3.27-1.93 7.98 1.34 10.52l29.87 23.13c3.25 2.52 7.97 1.95 10.52-1.34 2.52-3.28 1.93-8-1.35-10.53z"/></svg>